<svg xmlns="http://www.w3.org/2000/svg" xmlns:xlink="http://www.w3.org/1999/xlink"  viewBox="0 0 60 50">
  <defs>
    <style>
      .cls-1 {
        fill: #231f20;
      }

      .cls-2 {
        fill: url(#linear-gradient);
      }

      .cls-3 {
        fill: url(#linear-gradient-2);
      }

      .cls-4 {
        fill: url(#linear-gradient-3);
      }

      .cls-5 {
        fill: url(#linear-gradient-4);
      }

      .cls-6 {
        fill: url(#linear-gradient-5);
      }

      .cls-7 {
        fill: url(#linear-gradient-6);
      }

      .cls-8 {
        fill: url(#linear-gradient-7);
      }

      .cls-9 {
        fill: url(#linear-gradient-8);
      }
    </style>
    <linearGradient id="linear-gradient" y1="0.5" x2="1" y2="0.5" gradientUnits="objectBoundingBox">
      <stop offset="0" stop-color="#44c8f5"/>
      <stop offset="1" stop-color="#0095da"/>
    </linearGradient>
    <linearGradient id="linear-gradient-2" x1="0.652" y1="1" x2="0.365" y2="-0.013" gradientUnits="objectBoundingBox">
      <stop offset="0" stop-color="#123c5f"/>
      <stop offset="0.111" stop-color="#0c517e"/>
      <stop offset="0.231" stop-color="#076398"/>
      <stop offset="0.364" stop-color="#0470ac"/>
      <stop offset="0.515" stop-color="#017abb"/>
      <stop offset="0.697" stop-color="#0080c3"/>
      <stop offset="1" stop-color="#0082c6"/>
    </linearGradient>
    <linearGradient id="linear-gradient-3" x1="0.673" y1="0.972" x2="0.353" y2="0.042" gradientUnits="objectBoundingBox">
      <stop offset="0.002" stop-color="#353281"/>
      <stop offset="0.115" stop-color="#3e3b89"/>
      <stop offset="0.416" stop-color="#534f9b"/>
      <stop offset="0.713" stop-color="#5f5ba6"/>
      <stop offset="1" stop-color="#645faa"/>
    </linearGradient>
    <linearGradient id="linear-gradient-4" x1="0.098" y1="0.802" x2="0.986" y2="0.066" gradientUnits="objectBoundingBox">
      <stop offset="0" stop-color="#782b90"/>
      <stop offset="0.194" stop-color="#7b3394"/>
      <stop offset="0.51" stop-color="#854ca0"/>
      <stop offset="0.907" stop-color="#9473b4"/>
      <stop offset="1" stop-color="#997eba"/>
    </linearGradient>
    <linearGradient id="linear-gradient-5" y1="0.5" x2="1" y2="0.5" gradientUnits="objectBoundingBox">
      <stop offset="0" stop-color="#d80b8c"/>
      <stop offset="1" stop-color="#f17db1"/>
    </linearGradient>
    <linearGradient id="linear-gradient-6" x1="1" y1="0.5" x2="0" y2="0.5" gradientUnits="objectBoundingBox">
      <stop offset="0" stop-color="#00b05a"/>
      <stop offset="1" stop-color="#95cb6e"/>
    </linearGradient>
    <linearGradient id="linear-gradient-7" x1="0.5" y1="0.994" x2="0.5" y2="0.028" gradientUnits="objectBoundingBox">
      <stop offset="0.002" stop-color="#ffd64f"/>
      <stop offset="0.212" stop-color="#fcc138"/>
      <stop offset="0.439" stop-color="#fbb127"/>
      <stop offset="0.689" stop-color="#faa81d"/>
      <stop offset="1" stop-color="#faa61a"/>
    </linearGradient>
    <linearGradient id="linear-gradient-8" x1="0.119" y1="0.041" x2="0.939" y2="0.972" gradientUnits="objectBoundingBox">
      <stop offset="0" stop-color="#f26522"/>
      <stop offset="0.293" stop-color="#f26723"/>
      <stop offset="0.492" stop-color="#f37027"/>
      <stop offset="0.663" stop-color="#f57f2f"/>
      <stop offset="0.818" stop-color="#f8953a"/>
      <stop offset="0.961" stop-color="#fbb148"/>
      <stop offset="1" stop-color="#fdba4d"/>
    </linearGradient>
  </defs>
  <g id="Group_1844" data-name="Group 1844" transform="translate(-39.998 -26.738)">
    
    
    
    
    
    
    
    
    
    
    
    <g id="Group_843" data-name="Group 843" transform="translate(39.998 26.738)">
      <path id="Path_702" data-name="Path 702" class="cls-2" d="M222.447,65.722a1.558,1.558,0,0,1,1.575-1.671,2.255,2.255,0,0,1,2.035,2.274,1.6,1.6,0,0,1-1.53,1.752A2.255,2.255,0,0,1,222.447,65.722Zm6.066,2.83c0,2.294,1.633,3.449,2.663,3.449,1.088,0,1.939-.836,1.939-2.38,0-1.631-1.184-3.408-2.648-3.408C228.963,66.212,228.513,67.709,228.513,68.552Zm6.593,4.076c0,2.4,1.513,4.01,2.683,4.01.8,0,1.777-.744,1.777-2.734,0-2.157-1.347-4.214-2.669-4.214C236.325,69.691,235.106,70.2,235.106,72.628Z" transform="translate(-189.185 -42.359)"/>
      <path id="Path_703" data-name="Path 703" class="cls-3" d="M223.115,83.821c0-1.864,1.52-4.138,3.707-4.138a3.274,3.274,0,0,1,3.068,3.446,4.029,4.029,0,0,1-3.752,4.17A3.213,3.213,0,0,1,223.115,83.821Zm-.42-6.5a2.813,2.813,0,0,0,2.715-2.967,3.043,3.043,0,0,0-2.826-3.159,2.844,2.844,0,0,0-2.718,3.023A3.04,3.04,0,0,0,222.694,77.324Z" transform="translate(-188.938 -43.045)"/>
      <path id="Path_704" data-name="Path 704" class="cls-4" d="M203.985,89.045a3.761,3.761,0,0,0,3.92,3.722,4.155,4.155,0,0,0,4.314-4.051,3.815,3.815,0,0,0-3.838-3.706A4.129,4.129,0,0,0,203.985,89.045Zm7.666-6.871A3.154,3.154,0,0,0,214.761,79a2.981,2.981,0,0,0-3-3.038,3.117,3.117,0,0,0-3.089,3.069A3.007,3.007,0,0,0,211.651,82.174Zm2.611-9.078a1.922,1.922,0,0,0,1.9-2.005,2.1,2.1,0,0,0-2.025-2.122,1.924,1.924,0,0,0-1.974,1.934A2.133,2.133,0,0,0,214.262,73.1Z" transform="translate(-187.413 -42.831)"/>
      <path id="Path_705" data-name="Path 705" class="cls-5" d="M195.762,77.016A4.079,4.079,0,0,1,191.79,73a3.8,3.8,0,0,1,4-3.744,4.077,4.077,0,0,1,3.972,4.01A3.8,3.8,0,0,1,195.762,77.016Zm19.174-11.606a1.721,1.721,0,0,0,1.767-1.773,2.223,2.223,0,0,0-2.192-2.218,1.735,1.735,0,0,0-1.76,1.783A2.176,2.176,0,0,0,214.936,65.409Zm-9.592,6.141a2.968,2.968,0,0,0,3.023-2.954,3.07,3.07,0,0,0-3.122-3.056,2.976,2.976,0,0,0-3.089,2.767A3.2,3.2,0,0,0,205.344,71.55Z" transform="translate(-186.242 -42.106)"/>
      <path id="Path_706" data-name="Path 706" class="cls-6" d="M189.2,60.783a3.017,3.017,0,0,1-3.545-2.8,3.738,3.738,0,0,1,3.54-3.433,3.017,3.017,0,0,1,3.545,2.794A3.737,3.737,0,0,1,189.2,60.783Zm18.055,1.863a1.866,1.866,0,0,0,1.909-1.828,2.115,2.115,0,0,0-2.116-2.015,1.872,1.872,0,0,0-1.985,1.843A2.122,2.122,0,0,0,207.253,62.646Zm-8.294-.977a2.9,2.9,0,0,0,3.054-2.734,2.824,2.824,0,0,0-2.985-2.552c-1.623,0-3.182,1.083-3.182,2.653A2.929,2.929,0,0,0,198.959,61.669Z" transform="translate(-185.653 -41.445)"/>
      <path id="Path_707" data-name="Path 707" class="cls-7" d="M223.46,57.577a1.832,1.832,0,0,1,1.9-1.929,3.8,3.8,0,0,1,3.3,3.615,1.812,1.812,0,0,1-1.843,1.884A3.635,3.635,0,0,1,223.46,57.577ZM233.841,59.3a1.292,1.292,0,0,0,1.337-1.489c0-2.329-2.643-5.235-4.461-5.235-.638,0-1.309.425-1.309,1.557C229.407,56.109,231.7,59.3,233.841,59.3Z" transform="translate(-189.283 -41.257)"/>
      <path id="Path_708" data-name="Path 708" class="cls-8" d="M216.329,54.617a1.48,1.48,0,0,1,1.58-1.471,2.342,2.342,0,0,1,2.306,2.2,1.416,1.416,0,0,1-1.539,1.417A2.344,2.344,0,0,1,216.329,54.617Zm3.7-3.666c1.154,0,1.878-.658,1.878-1.514,0-1.879-2.264-3.126-3.636-3.126-1.676,0-1.985,1.017-1.985,1.519C216.291,49.534,218.352,50.952,220.033,50.952Zm-4.481-9.8c0,1.549,3.164,3.57,5.6,3.57.38,0,1.7-.061,1.7-1.074,0-1.645-3.256-3.6-5.544-3.6C216.255,40.055,215.552,40.374,215.552,41.154Z" transform="translate(-188.523 -40.055)"/>
      <path id="Path_709" data-name="Path 709" class="cls-9" d="M206.221,52.584c0-.987.917-2.208,2.785-2.208,1.513,0,3.281,1.129,3.281,2.837a2.46,2.46,0,0,1-2.679,2.231C207.877,55.445,206.221,54.225,206.221,52.584Zm-3.243-3.367c1.7,0,3.6-.952,3.6-2.694,0-1.822-2.164-2.6-3.5-2.6-2.594,0-3.871,1.579-3.871,2.673C199.214,48.113,201.045,49.217,202.978,49.217Z" transform="translate(-186.955 -40.427)"/>
    </g>
  </g>
</svg>